<svg xmlns="http://www.w3.org/2000/svg" xmlns:xlink="http://www.w3.org/1999/xlink" viewBox="0,0,256,256" width="48px" height="48px" fill-rule="nonzero"><g fill="#ff99be" fill-rule="nonzero" stroke="none" stroke-width="1" stroke-linecap="butt" stroke-linejoin="miter" stroke-miterlimit="10" stroke-dasharray="" stroke-dashoffset="0" font-family="none" font-weight="none" font-size="none" text-anchor="none" style="mix-blend-mode: normal"><g transform="scale(5.33333,5.33333)"><path d="M20,2c-1.64497,0 -3,1.35503 -3,3v2h-13c-0.36064,-0.0051 -0.69608,0.18438 -0.87789,0.49587c-0.18181,0.3115 -0.18181,0.69676 0,1.00825c0.18181,0.3115 0.51725,0.50097 0.87789,0.49587h14c0.55226,-0.00006 0.99994,-0.44774 1,-1v-3c0,-0.56503 0.43497,-1 1,-1h8c0.56503,0 1,0.43497 1,1v3c0.00006,0.55226 0.44774,0.99994 1,1h14c0.36064,0.0051 0.69608,-0.18438 0.87789,-0.49587c0.18181,-0.3115 0.18181,-0.69676 0,-1.00825c-0.18181,-0.3115 -0.51725,-0.50097 -0.87789,-0.49587h-13v-2c0,-1.64497 -1.35503,-3 -3,-3zM6.98633,10.98633c-0.28253,0.00226 -0.55092,0.12392 -0.73884,0.3349c-0.18792,0.21099 -0.27782,0.49161 -0.24749,0.77252l2.66406,28.37305c0.24043,2.56005 2.40633,4.5332 4.97852,4.5332h10.35742h10.35742c2.57143,0 4.73805,-1.97283 4.97852,-4.5332l2.66406,-28.37305c0.05178,-0.55013 -0.35222,-1.03807 -0.90234,-1.08984c-0.55013,-0.05178 -1.03807,0.35222 -1.08984,0.90234l-2.66211,28.375c-0.14554,1.54963 -1.43171,2.71875 -2.98828,2.71875h-10.35742h-10.35742c-1.55782,0 -2.84271,-1.1688 -2.98828,-2.71875l-2.66211,-28.375c-0.04205,-0.52303 -0.48116,-0.92463 -1.00586,-0.91992zM14.64648,13.98633c-0.28232,-0.00631 -0.55416,0.10703 -0.74837,0.31204c-0.19422,0.20501 -0.29271,0.48256 -0.27116,0.76414l1.375,22c0.0175,0.36021 0.22758,0.68311 0.54981,0.84506c0.32223,0.16195 0.70669,0.13788 1.0062,-0.06301c0.29951,-0.20089 0.46766,-0.54746 0.44009,-0.90705l-1.375,-22c-0.02554,-0.52417 -0.4519,-0.93944 -0.97656,-0.95117zM23.98438,13.98633c-0.55152,0.00862 -0.99193,0.46214 -0.98437,1.01367v22c-0.0051,0.36064 0.18438,0.69608 0.49587,0.87789c0.3115,0.18181 0.69676,0.18181 1.00825,0c0.3115,-0.18181 0.50097,-0.51725 0.49587,-0.87789v-22c0.0037,-0.2703 -0.10218,-0.53059 -0.29351,-0.72155c-0.19133,-0.19097 -0.45182,-0.29634 -0.72212,-0.29212zM33.32422,13.98633c-0.51325,0.02657 -0.92281,0.43782 -0.94727,0.95117l-1.375,22c-0.02758,0.35958 0.14058,0.70616 0.44009,0.90705c0.29951,0.20089 0.68397,0.22496 1.0062,0.06301c0.32223,-0.16195 0.53231,-0.48484 0.54981,-0.84506l1.375,-22c0.02227,-0.28685 -0.08007,-0.56939 -0.28088,-0.77543c-0.20081,-0.20604 -0.48062,-0.31562 -0.76795,-0.30074z"></path></g></g></svg>